<mxfile host="65bd71144e">
    <diagram name="Page-1" id="2YBvvXClWsGukQMizWep">
        <mxGraphModel dx="2244" dy="828" grid="1" gridSize="10" guides="1" tooltips="1" connect="1" arrows="1" fold="1" page="1" pageScale="1" pageWidth="850" pageHeight="1100" math="0" shadow="0">
            <root>
                <mxCell id="0"/>
                <mxCell id="1" parent="0"/>
                <mxCell id="aM9ryv3xv72pqoxQDRHE-1" value="ServerHttpObservationFilter" style="shape=umlLifeline;perimeter=lifelinePerimeter;whiteSpace=wrap;html=1;container=0;dropTarget=0;collapsible=0;recursiveResize=0;outlineConnect=0;portConstraint=eastwest;newEdgeStyle={&quot;edgeStyle&quot;:&quot;elbowEdgeStyle&quot;,&quot;elbow&quot;:&quot;vertical&quot;,&quot;curved&quot;:0,&quot;rounded&quot;:0};fontFamily=Tahoma;" parent="1" vertex="1">
                    <mxGeometry x="-10" y="40" width="165" height="490" as="geometry"/>
                </mxCell>
                <mxCell id="aM9ryv3xv72pqoxQDRHE-2" value="" style="html=1;points=[];perimeter=orthogonalPerimeter;outlineConnect=0;targetShapes=umlLifeline;portConstraint=eastwest;newEdgeStyle={&quot;edgeStyle&quot;:&quot;elbowEdgeStyle&quot;,&quot;elbow&quot;:&quot;vertical&quot;,&quot;curved&quot;:0,&quot;rounded&quot;:0};" parent="aM9ryv3xv72pqoxQDRHE-1" vertex="1">
                    <mxGeometry x="77.5" y="70" width="10" height="420" as="geometry"/>
                </mxCell>
                <mxCell id="aM9ryv3xv72pqoxQDRHE-3" value="request" style="html=1;verticalAlign=bottom;startArrow=oval;endArrow=block;startSize=8;edgeStyle=elbowEdgeStyle;elbow=vertical;curved=0;rounded=0;" parent="aM9ryv3xv72pqoxQDRHE-1" target="aM9ryv3xv72pqoxQDRHE-2" edge="1">
                    <mxGeometry relative="1" as="geometry">
                        <mxPoint x="-75" y="70" as="sourcePoint"/>
                    </mxGeometry>
                </mxCell>
                <mxCell id="aM9ryv3xv72pqoxQDRHE-5" value="Controller" style="shape=umlLifeline;perimeter=lifelinePerimeter;whiteSpace=wrap;html=1;container=0;dropTarget=0;collapsible=0;recursiveResize=0;outlineConnect=0;portConstraint=eastwest;newEdgeStyle={&quot;edgeStyle&quot;:&quot;elbowEdgeStyle&quot;,&quot;elbow&quot;:&quot;vertical&quot;,&quot;curved&quot;:0,&quot;rounded&quot;:0};fontFamily=Tahoma;" parent="1" vertex="1">
                    <mxGeometry x="375" y="40" width="100" height="340" as="geometry"/>
                </mxCell>
                <mxCell id="aM9ryv3xv72pqoxQDRHE-6" value="" style="html=1;points=[];perimeter=orthogonalPerimeter;outlineConnect=0;targetShapes=umlLifeline;portConstraint=eastwest;newEdgeStyle={&quot;edgeStyle&quot;:&quot;elbowEdgeStyle&quot;,&quot;elbow&quot;:&quot;vertical&quot;,&quot;curved&quot;:0,&quot;rounded&quot;:0};" parent="aM9ryv3xv72pqoxQDRHE-5" vertex="1">
                    <mxGeometry x="45" y="80" width="10" height="260" as="geometry"/>
                </mxCell>
                <mxCell id="2" value="jeager" style="shape=umlLifeline;perimeter=lifelinePerimeter;whiteSpace=wrap;html=1;container=0;dropTarget=0;collapsible=0;recursiveResize=0;outlineConnect=0;portConstraint=eastwest;newEdgeStyle={&quot;edgeStyle&quot;:&quot;elbowEdgeStyle&quot;,&quot;elbow&quot;:&quot;vertical&quot;,&quot;curved&quot;:0,&quot;rounded&quot;:0};" vertex="1" parent="1">
                    <mxGeometry x="1080" y="40" width="100" height="900" as="geometry"/>
                </mxCell>
                <mxCell id="3" value="" style="html=1;points=[];perimeter=orthogonalPerimeter;outlineConnect=0;targetShapes=umlLifeline;portConstraint=eastwest;newEdgeStyle={&quot;edgeStyle&quot;:&quot;elbowEdgeStyle&quot;,&quot;elbow&quot;:&quot;vertical&quot;,&quot;curved&quot;:0,&quot;rounded&quot;:0};" vertex="1" parent="2">
                    <mxGeometry x="45" y="80" width="10" height="560" as="geometry"/>
                </mxCell>
                <mxCell id="4" value="SimpleObservation" style="shape=umlLifeline;perimeter=lifelinePerimeter;whiteSpace=wrap;html=1;container=0;dropTarget=0;collapsible=0;recursiveResize=0;outlineConnect=0;portConstraint=eastwest;newEdgeStyle={&quot;edgeStyle&quot;:&quot;elbowEdgeStyle&quot;,&quot;elbow&quot;:&quot;vertical&quot;,&quot;curved&quot;:0,&quot;rounded&quot;:0};fontFamily=Tahoma;" vertex="1" parent="1">
                    <mxGeometry x="190" y="40" width="120" height="500" as="geometry"/>
                </mxCell>
                <mxCell id="5" value="&lt;div style=&quot;background-color:#1e1f22;color:#bcbec4&quot;&gt;&lt;div style=&quot;font-size: 9.8pt;&quot;&gt;hanlder&lt;/div&gt;&lt;/div&gt;" style="html=1;points=[];perimeter=orthogonalPerimeter;outlineConnect=0;targetShapes=umlLifeline;portConstraint=eastwest;newEdgeStyle={&quot;edgeStyle&quot;:&quot;elbowEdgeStyle&quot;,&quot;elbow&quot;:&quot;vertical&quot;,&quot;curved&quot;:0,&quot;rounded&quot;:0};fontFamily=Tahoma;horizontal=0;" vertex="1" parent="4">
                    <mxGeometry x="20" y="80" width="20" height="370" as="geometry"/>
                </mxCell>
                <mxCell id="6" value="&lt;div style=&quot;background-color:#1e1f22;color:#bcbec4&quot;&gt;&lt;div style=&quot;font-size: 9.8pt;&quot;&gt;&lt;span style=&quot;font-size: 13.0667px;&quot;&gt;hanlder&lt;/span&gt;&lt;br&gt;&lt;/div&gt;&lt;/div&gt;" style="html=1;points=[];perimeter=orthogonalPerimeter;outlineConnect=0;targetShapes=umlLifeline;portConstraint=eastwest;newEdgeStyle={&quot;edgeStyle&quot;:&quot;elbowEdgeStyle&quot;,&quot;elbow&quot;:&quot;vertical&quot;,&quot;curved&quot;:0,&quot;rounded&quot;:0};fontFamily=Tahoma;horizontal=0;" vertex="1" parent="1">
                    <mxGeometry x="240" y="120" width="20" height="370" as="geometry"/>
                </mxCell>
                <mxCell id="7" value="&lt;div style=&quot;background-color:#1e1f22;color:#bcbec4&quot;&gt;&lt;div style=&quot;font-size: 9.8pt;&quot;&gt;&lt;span style=&quot;font-size: 13.0667px;&quot;&gt;hanlder&lt;/span&gt;&lt;br&gt;&lt;/div&gt;&lt;/div&gt;" style="html=1;points=[];perimeter=orthogonalPerimeter;outlineConnect=0;targetShapes=umlLifeline;portConstraint=eastwest;newEdgeStyle={&quot;edgeStyle&quot;:&quot;elbowEdgeStyle&quot;,&quot;elbow&quot;:&quot;vertical&quot;,&quot;curved&quot;:0,&quot;rounded&quot;:0};fontFamily=Tahoma;horizontal=0;" vertex="1" parent="1">
                    <mxGeometry x="270" y="120" width="20" height="370" as="geometry"/>
                </mxCell>
                <mxCell id="8" value="start" style="html=1;verticalAlign=bottom;endArrow=block;edgeStyle=elbowEdgeStyle;elbow=vertical;curved=0;rounded=0;" edge="1" parent="1">
                    <mxGeometry x="-0.5" relative="1" as="geometry">
                        <mxPoint x="80" y="140" as="sourcePoint"/>
                        <Array as="points">
                            <mxPoint x="110" y="140"/>
                            <mxPoint x="250" y="20"/>
                        </Array>
                        <mxPoint x="200" y="140" as="targetPoint"/>
                        <mxPoint as="offset"/>
                    </mxGeometry>
                </mxCell>
                <mxCell id="aM9ryv3xv72pqoxQDRHE-7" value="doFilter" style="html=1;verticalAlign=bottom;endArrow=block;edgeStyle=elbowEdgeStyle;elbow=vertical;curved=0;rounded=0;" parent="1" edge="1">
                    <mxGeometry x="-0.4768" relative="1" as="geometry">
                        <mxPoint x="80" y="190" as="sourcePoint"/>
                        <Array as="points">
                            <mxPoint x="335" y="189.66"/>
                            <mxPoint x="325" y="109.66"/>
                            <mxPoint x="250" y="69.66"/>
                        </Array>
                        <mxPoint x="424.9999999999998" y="189.66" as="targetPoint"/>
                        <mxPoint as="offset"/>
                    </mxGeometry>
                </mxCell>
                <mxCell id="aM9ryv3xv72pqoxQDRHE-8" value="return" style="html=1;verticalAlign=bottom;endArrow=open;dashed=1;endSize=8;edgeStyle=elbowEdgeStyle;elbow=vertical;curved=0;rounded=0;" parent="1" source="aM9ryv3xv72pqoxQDRHE-6" target="aM9ryv3xv72pqoxQDRHE-2" edge="1">
                    <mxGeometry x="0.4599" relative="1" as="geometry">
                        <mxPoint x="260" y="205" as="targetPoint"/>
                        <Array as="points">
                            <mxPoint x="255" y="280"/>
                        </Array>
                        <mxPoint x="1" as="offset"/>
                    </mxGeometry>
                </mxCell>
                <mxCell id="12" value="end" style="html=1;verticalAlign=bottom;endArrow=block;edgeStyle=elbowEdgeStyle;elbow=vertical;curved=0;rounded=0;" edge="1" parent="1">
                    <mxGeometry x="-0.5" relative="1" as="geometry">
                        <mxPoint x="79.99999999999977" y="450" as="sourcePoint"/>
                        <Array as="points">
                            <mxPoint x="110" y="450"/>
                            <mxPoint x="250" y="330"/>
                        </Array>
                        <mxPoint x="200" y="450" as="targetPoint"/>
                        <mxPoint as="offset"/>
                    </mxGeometry>
                </mxCell>
                <mxCell id="14" value="SimpleObservation" style="shape=umlLifeline;perimeter=lifelinePerimeter;whiteSpace=wrap;html=1;container=0;dropTarget=0;collapsible=0;recursiveResize=0;outlineConnect=0;portConstraint=eastwest;newEdgeStyle={&quot;edgeStyle&quot;:&quot;elbowEdgeStyle&quot;,&quot;elbow&quot;:&quot;vertical&quot;,&quot;curved&quot;:0,&quot;rounded&quot;:0};fontFamily=Tahoma;" vertex="1" parent="1">
                    <mxGeometry x="670" y="40" width="140" height="340" as="geometry"/>
                </mxCell>
                <mxCell id="15" value="" style="html=1;points=[];perimeter=orthogonalPerimeter;outlineConnect=0;targetShapes=umlLifeline;portConstraint=eastwest;newEdgeStyle={&quot;edgeStyle&quot;:&quot;elbowEdgeStyle&quot;,&quot;elbow&quot;:&quot;vertical&quot;,&quot;curved&quot;:0,&quot;rounded&quot;:0};" vertex="1" parent="14">
                    <mxGeometry x="65" y="80" width="10" height="260" as="geometry"/>
                </mxCell>
                <mxCell id="16" value="excute" style="html=1;verticalAlign=bottom;endArrow=block;edgeStyle=elbowEdgeStyle;elbow=vertical;curved=0;rounded=0;" edge="1" parent="1">
                    <mxGeometry x="-0.3067" relative="1" as="geometry">
                        <mxPoint x="432.5" y="240.34" as="sourcePoint"/>
                        <Array as="points">
                            <mxPoint x="687.5" y="240"/>
                            <mxPoint x="677.5" y="160"/>
                            <mxPoint x="602.5" y="120"/>
                        </Array>
                        <mxPoint x="547.5" y="240.5" as="targetPoint"/>
                        <mxPoint as="offset"/>
                    </mxGeometry>
                </mxCell>
                <mxCell id="18" value="&lt;span style=&quot;text-align: left;&quot;&gt;RestTemplate&lt;/span&gt;" style="shape=umlLifeline;perimeter=lifelinePerimeter;whiteSpace=wrap;html=1;container=0;dropTarget=0;collapsible=0;recursiveResize=0;outlineConnect=0;portConstraint=eastwest;newEdgeStyle={&quot;edgeStyle&quot;:&quot;elbowEdgeStyle&quot;,&quot;elbow&quot;:&quot;vertical&quot;,&quot;curved&quot;:0,&quot;rounded&quot;:0};fontFamily=Tahoma;" vertex="1" parent="1">
                    <mxGeometry x="510" y="40" width="100" height="345" as="geometry"/>
                </mxCell>
                <mxCell id="19" value="" style="html=1;points=[];perimeter=orthogonalPerimeter;outlineConnect=0;targetShapes=umlLifeline;portConstraint=eastwest;newEdgeStyle={&quot;edgeStyle&quot;:&quot;elbowEdgeStyle&quot;,&quot;elbow&quot;:&quot;vertical&quot;,&quot;curved&quot;:0,&quot;rounded&quot;:0};" vertex="1" parent="18">
                    <mxGeometry x="45" y="80" width="10" height="260" as="geometry"/>
                </mxCell>
                <mxCell id="20" value="start" style="html=1;verticalAlign=bottom;endArrow=block;edgeStyle=elbowEdgeStyle;elbow=vertical;curved=0;rounded=0;" edge="1" parent="1" source="18">
                    <mxGeometry x="-0.3067" relative="1" as="geometry">
                        <mxPoint x="630" y="170.34000000000003" as="sourcePoint"/>
                        <Array as="points">
                            <mxPoint x="885" y="170"/>
                            <mxPoint x="875" y="90"/>
                            <mxPoint x="800" y="50"/>
                        </Array>
                        <mxPoint x="745" y="170.5" as="targetPoint"/>
                        <mxPoint as="offset"/>
                    </mxGeometry>
                </mxCell>
                <mxCell id="21" value="end" style="html=1;verticalAlign=bottom;endArrow=block;edgeStyle=elbowEdgeStyle;elbow=vertical;curved=0;rounded=0;" edge="1" parent="1" source="18">
                    <mxGeometry x="-0.3067" relative="1" as="geometry">
                        <mxPoint x="630" y="320.34000000000003" as="sourcePoint"/>
                        <Array as="points">
                            <mxPoint x="885" y="320"/>
                            <mxPoint x="875" y="240"/>
                            <mxPoint x="800" y="200"/>
                        </Array>
                        <mxPoint x="745" y="320.5" as="targetPoint"/>
                        <mxPoint as="offset"/>
                    </mxGeometry>
                </mxCell>
                <mxCell id="22" value="excute" style="html=1;verticalAlign=bottom;endArrow=block;edgeStyle=elbowEdgeStyle;elbow=vertical;curved=0;rounded=0;" edge="1" parent="1" source="19">
                    <mxGeometry x="-0.3067" relative="1" as="geometry">
                        <mxPoint x="600" y="235" as="sourcePoint"/>
                        <Array as="points">
                            <mxPoint x="790" y="234.66"/>
                            <mxPoint x="780" y="154.66"/>
                            <mxPoint x="705" y="114.66"/>
                        </Array>
                        <mxPoint x="650" y="235.16" as="targetPoint"/>
                        <mxPoint as="offset"/>
                    </mxGeometry>
                </mxCell>
                <mxCell id="23" value="server" style="ellipse;shape=cloud;whiteSpace=wrap;html=1;fontFamily=Tahoma;" vertex="1" parent="1">
                    <mxGeometry x="640" y="195" width="90" height="75" as="geometry"/>
                </mxCell>
                <mxCell id="25" value="OtlpHttpSpanExporter" style="shape=umlLifeline;perimeter=lifelinePerimeter;whiteSpace=wrap;html=1;container=0;dropTarget=0;collapsible=0;recursiveResize=0;outlineConnect=0;portConstraint=eastwest;newEdgeStyle={&quot;edgeStyle&quot;:&quot;elbowEdgeStyle&quot;,&quot;elbow&quot;:&quot;vertical&quot;,&quot;curved&quot;:0,&quot;rounded&quot;:0};fontFamily=Tahoma;" vertex="1" parent="1">
                    <mxGeometry x="860" y="40" width="140" height="610" as="geometry"/>
                </mxCell>
                <mxCell id="26" value="" style="html=1;points=[];perimeter=orthogonalPerimeter;outlineConnect=0;targetShapes=umlLifeline;portConstraint=eastwest;newEdgeStyle={&quot;edgeStyle&quot;:&quot;elbowEdgeStyle&quot;,&quot;elbow&quot;:&quot;vertical&quot;,&quot;curved&quot;:0,&quot;rounded&quot;:0};" vertex="1" parent="25">
                    <mxGeometry x="65" y="80" width="10" height="530" as="geometry"/>
                </mxCell>
                <mxCell id="27" value="end" style="html=1;verticalAlign=bottom;endArrow=block;edgeStyle=elbowEdgeStyle;elbow=vertical;curved=0;rounded=0;" edge="1" parent="1">
                    <mxGeometry x="-0.3067" relative="1" as="geometry">
                        <mxPoint x="740.0004347826085" y="320" as="sourcePoint"/>
                        <Array as="points">
                            <mxPoint x="1065.37" y="320"/>
                            <mxPoint x="1055.37" y="240"/>
                            <mxPoint x="980.37" y="200"/>
                        </Array>
                        <mxPoint x="925.37" y="320.5" as="targetPoint"/>
                        <mxPoint as="offset"/>
                    </mxGeometry>
                </mxCell>
                <mxCell id="29" value="end" style="html=1;verticalAlign=bottom;endArrow=block;edgeStyle=elbowEdgeStyle;elbow=vertical;curved=0;rounded=0;" edge="1" parent="1">
                    <mxGeometry x="-0.3067" relative="1" as="geometry">
                        <mxPoint x="289.6304347826084" y="450" as="sourcePoint"/>
                        <Array as="points">
                            <mxPoint x="614.9999999999999" y="450"/>
                            <mxPoint x="604.9999999999999" y="370"/>
                            <mxPoint x="530" y="330"/>
                        </Array>
                        <mxPoint x="910" y="451" as="targetPoint"/>
                        <mxPoint as="offset"/>
                    </mxGeometry>
                </mxCell>
                <mxCell id="30" value="export" style="html=1;verticalAlign=bottom;endArrow=block;edgeStyle=elbowEdgeStyle;elbow=vertical;curved=0;rounded=0;" edge="1" parent="1">
                    <mxGeometry x="-0.3067" relative="1" as="geometry">
                        <mxPoint x="930.0004347826084" y="560" as="sourcePoint"/>
                        <Array as="points">
                            <mxPoint x="1255.37" y="560"/>
                            <mxPoint x="1245.37" y="480"/>
                            <mxPoint x="1170.37" y="440"/>
                        </Array>
                        <mxPoint x="1115.37" y="560.5" as="targetPoint"/>
                        <mxPoint as="offset"/>
                    </mxGeometry>
                </mxCell>
            </root>
        </mxGraphModel>
    </diagram>
</mxfile>